<svg xmlns="http://www.w3.org/2000/svg" width="256" height="256"><path fill-opacity=".016" d="M0 128.004v128.004l128.25-.254 128.25-.254.254-127.75L257.008 0H0v128.004m.485.496c0 70.4.119 99.053.265 63.672.146-35.38.146-92.98 0-128C.604 29.153.485 58.1.485 128.5" fill="#dd7f2d" fill-rule="evenodd"/><path fill-opacity=".083" d="M93 11.518C86.163 14.75 80.631 19.987 77.173 26.5c-2.303 4.337-2.656 6.193-2.664 14-.006 6.21.475 9.937 1.551 12.022l1.559 3.022L39.06 75.121.5 94.699l-.289 8.65C-.132 113.624-.153 113.613 10 108.5c3.823-1.925 7.186-3.5 7.475-3.5.289 0 .525 27.9.525 62v62h67.059c45.309 0 66.855.331 66.429 1.02-.347.56-.135 2.519.47 4.352 1.129 3.422 4.376 5.628 8.284 5.628 1.182 0 3.44 1.237 5.019 2.75 2.403 2.302 3.745 2.75 8.239 2.75 4.414 0 5.869-.467 8.184-2.627 2.812-2.623 2.846-2.627 23.959-3.167l21.142-.54 2.783 2.905c4.952 5.169 12.397 5.117 17.637-.122 1.622-1.622 3.557-2.949 4.3-2.949.744 0 2.059-.707 2.924-1.571 1.275-1.276 1.571-4.152 1.571-15.291v-13.719l-7.25-13.708-7.25-13.709-9.75-.001L222 181v-9.365c0-7.96-.311-9.761-2.073-12-2.032-2.584-2.305-2.635-14-2.635H194v-52.174l7.577 4.087c8.329 4.493 9.913 4.86 10.816 2.505 1.208-3.148.643-14.239-.799-15.681-.773-.773-18.548-10.054-39.5-20.624C151.142 64.543 134 55.748 134 55.57c0-.179.74-2.068 1.644-4.198 2.625-6.18 2.229-16.785-.879-23.573-5.299-11.577-15.206-18.088-28.265-18.58-6.914-.26-8.747.052-13.5 2.299m7.096 18.747c-4.055 2.084-6.596 6.433-6.596 11.289 0 3.593.571 4.979 3.093 7.501C104.371 56.832 117 51.847 117 41c0-8.7-9.332-14.626-16.904-10.735M54.75 86.097L23 102.006V218h15V102.986l68.75.257 68.75.257.266 26.75.267 26.75h12.904l.282-27.043.281-27.044-32.463-16.566c-17.855-9.112-32.602-16.18-32.772-15.707-1.243 3.469-17.147 26.906-18.425 27.152-1.124.217-4.114-3.711-9.887-12.991-4.552-7.315-8.541-13.596-8.864-13.957-.324-.36-14.876 6.503-32.339 15.253m19.072 22.653c17.778.153 46.578.153 64-.001 17.423-.153 2.878-.278-32.322-.278s-49.455.126-31.678.279m96.587 15.75c-.001 9.35.149 13.31.334 8.799.185-4.51.186-12.16.002-17-.183-4.839-.335-1.149-.336 8.201m-117.33-8.917c.048 1.165.285 1.402.604.605.289-.722.253-1.585-.079-1.917-.332-.332-.568.258-.525 1.312m27.171 6.166c14.713.156 38.787.156 53.5 0 14.713-.156 2.675-.283-26.75-.283s-41.463.127-26.75.283m-27.171 2.834c.048 1.165.285 1.402.604.605.289-.722.253-1.585-.079-1.917-.332-.332-.568.258-.525 1.312m28.241 3.166c14.752.156 38.602.156 53 0 14.399-.156 2.33-.284-26.82-.283-29.15 0-40.931.127-26.18.283m0 3c14.752.156 38.602.156 53 0 14.399-.156 2.33-.284-26.82-.283-29.15 0-40.931.127-26.18.283m-28.241 2.834c.048 1.165.285 1.402.604.605.289-.722.253-1.585-.079-1.917-.332-.332-.568.258-.525 1.312m27.171 3.166c14.713.156 38.787.156 53.5 0 14.713-.156 2.675-.283-26.75-.283s-41.463.127-26.75.283m-32 9.993c3.712.192 9.788.192 13.5 0 3.713-.193.675-.35-6.75-.35s-10.462.157-6.75.35m20.829.841c.048 1.165.285 1.402.604.605.289-.722.253-1.585-.079-1.917-.332-.332-.568.258-.525 1.312m14.171-.838c4.812.183 12.687.183 17.5 0 4.813-.184.875-.334-8.75-.334s-13.562.15-8.75.334m58.446.004l28.196.282.374 4.734.374 4.735.18-5.25.18-5.25-28.75.234-28.75.234 28.196.281m-93.446 1.993c3.712.192 9.788.192 13.5 0 3.713-.193.675-.35-6.75-.35s-10.462.157-6.75.35m35 .003c4.812.183 12.687.183 17.5 0 4.813-.184.875-.334-8.75-.334s-13.562.15-8.75.334m24.38 7.505c-1.055 3.938-.717 24.75.402 24.75.665 0 .988-4.804.908-13.5-.069-7.425-.256-13.5-.416-13.5-.16 0-.562 1.012-.894 2.25m-55.334-.506c4.287.188 11.037.187 15-.002 3.962-.19.454-.343-7.796-.342-8.25.001-11.492.156-7.204.344m32.454-.001c3.987.189 10.513.189 14.5 0 3.987-.19.725-.346-7.25-.346s-11.237.156-7.25.346m-41.944 14.259c-.168 7.151.031 13.001.444 13 .413-.001.75-5.852.75-13.002s-.2-13-.444-13c-.245 0-.582 5.851-.75 13.002m32.583.498c.001 7.15.161 9.944.353 6.208.193-3.735.192-9.585-.003-13-.194-3.414-.352-.358-.35 6.792M49 160.75c0 .412 1.125.75 2.5.75s2.5-.338 2.5-.75-1.125-.75-2.5-.75-2.5.338-2.5.75m16-.367c0 .211 1.125.599 2.5.862s2.5.09 2.5-.384c0-.473-1.125-.861-2.5-.861s-2.5.173-2.5.383m16 .444c0 .455 1.35.628 3 .386s3-.614 3-.826c0-.213-1.35-.387-3-.387s-3 .372-3 .827m16 .034c0 .474 1.125.647 2.5.384s2.5-.651 2.5-.862c0-.21-1.125-.383-2.5-.383s-2.5.388-2.5.861m59.461 1.379c-.268.699-.369 17.243-.224 36.765l.263 35.495 2.25.32c1.916.272 2.25-.139 2.25-2.765 0-2.118 1.073-4.255 3.423-6.82 3.18-3.469 3.825-3.735 9.077-3.735s5.897.266 9.077 3.735c2.314 2.526 3.423 4.712 3.423 6.75V235h31.025l-.263-36.75-.262-36.75-29.776-.265c-23.345-.208-29.881.009-30.263 1.005m-33.255 1.501c3.689.191 9.989.193 14 .002 4.012-.19.994-.347-6.706-.348-7.7-.002-10.982.154-7.294.346M49 174v9h21v-18h-3c-2.679 0-3 .327-3 3.055 0 3.02-.053 3.051-4.75 2.75-4.35-.279-4.777-.537-5.066-3.055-.249-2.16-.839-2.75-2.75-2.75-2.398 0-2.434.132-2.434 9m32 0v9h21v-9c0-8.868-.036-9-2.434-9-1.911 0-2.501.59-2.75 2.75-.289 2.518-.716 2.776-5.066 3.055-4.697.301-4.75.27-4.75-2.75 0-2.728-.321-3.055-3-3.055h-3v9m33.438 17.5c-.001 14.85.138 21.064.309 13.81.171-7.255.171-19.405.001-27-.17-7.596-.31-1.66-.31 13.19m32 0c-.001 14.85.138 21.064.309 13.81.171-7.255.171-19.405.001-27-.17-7.596-.31-1.66-.31 13.19m-25.188-21.811c.963.252 2.537.252 3.5 0 .963-.251.175-.457-1.75-.457s-2.713.206-1.75.457m16.019.004c.973.254 2.323.237 3-.037.677-.274-.119-.481-1.769-.461-1.65.02-2.204.244-1.231.498M120 181.934V191h21v-9c0-8.933-.019-9-2.5-9-2.111 0-2.5.467-2.5 3 0 2.928-.118 3-4.934 3-4.638 0-4.952-.164-5.25-2.75-.248-2.16-.906-2.818-3.066-3.066l-2.75-.317v9.067M222 196.5V208h12.073c10.961 0 12.042.161 11.735 1.75-.3 1.548-1.694 1.75-12.075 1.75h-11.735l.001 11.75c.001 10.852.145 11.75 1.89 11.75 1.348 0 2.067-.952 2.512-3.325.701-3.737 4.672-8.009 8.946-9.624 5.619-2.123 13.025 1.668 15.53 7.95.756 1.897 1.011-.184 1.06-8.639l.063-11.138-6.696-12.612L238.608 185H222v11.5m-147.5-7.751l33 .276-.348 13.488c-.241 9.339-.011 13.487.75 13.487.745 0 1.098-4.499 1.098-14v-14l-33.75.236-33.75.236 33 .277m-22.75 1.994c3.987.189 10.513.189 14.5 0 3.987-.19.725-.346-7.25-.346s-11.237.156-7.25.346m33 0c3.987.189 10.513.189 14.5 0 3.987-.19.725-.346-7.25-.346s-11.237.156-7.25.346M43.392 205c0 7.425.157 10.463.35 6.75.192-3.713.192-9.787 0-13.5-.193-3.713-.35-.675-.35 6.75m31.997.5c.001 7.15.161 9.944.353 6.208.193-3.735.192-9.585-.003-13-.194-3.414-.352-.358-.35 6.792m-25.12-8.807c.973.254 2.323.237 3-.037.677-.274-.119-.481-1.769-.461-1.65.02-2.204.244-1.231.498m14.981-.004c.963.252 2.537.252 3.5 0 .963-.251.175-.457-1.75-.457s-2.713.206-1.75.457m17 0c.963.252 2.537.252 3.5 0 .963-.251.175-.457-1.75-.457s-2.713.206-1.75.457m16.019.004c.973.254 2.323.237 3-.037.677-.274-.119-.481-1.769-.461-1.65.02-2.204.244-1.231.498m22.981-.004c.963.252 2.537.252 3.5 0 .963-.251.175-.457-1.75-.457s-2.713.206-1.75.457m16.019.004c.973.254 2.323.237 3-.037.677-.274-.119-.481-1.769-.461-1.65.02-2.204.244-1.231.498M49 209v9h21v-18h-3c-2.679 0-3 .327-3 3.055 0 3.02-.053 3.051-4.75 2.75-4.35-.279-4.777-.537-5.066-3.055-.249-2.16-.839-2.75-2.75-2.75-2.398 0-2.434.132-2.434 9m32 0v9h21v-9c0-8.933-.019-9-2.5-9-2.111 0-2.5.467-2.5 3 0 2.933-.111 3-5 3s-5-.067-5-3c0-2.667-.333-3-3-3h-3v9m39 0v9h21v-9c0-8.933-.019-9-2.5-9-2.111 0-2.5.467-2.5 3 0 2.933-.111 3-5 3s-5-.067-5-3c0-2.667-.333-3-3-3h-3v9m28.813 8.683c.721.289 1.584.253 1.916-.079.332-.332-.258-.568-1.312-.525-1.165.048-1.402.285-.604.604M23 223.25c0 .412 29.138.646 64.75.519 35.612-.127 54.4-.351 41.75-.498-59.591-.692-106.501-.701-106.5-.021m147.357 2.72c-2.766 1.144-5.357 4.867-5.357 7.697 0 3.883 4.231 7.733 8.5 7.733 4.339 0 8.5-3.867 8.5-7.9 0-5.101-6.832-9.52-11.643-7.53m63.278 2.103c-3.382 2.66-3.689 8.663-.585 11.472 5.096 4.612 13.35.809 13.35-6.152 0-6.655-7.235-9.67-12.765-5.32m-63.07 2.855c-3.4 3.757.833 8.535 5.397 6.092 2.43-1.3 2.645-4.27.467-6.449-2.084-2.083-3.747-1.982-5.864.357m65.185-.848c-2.009 1.17-2.318 4.952-.55 6.72 1.769 1.769 4.252 1.463 6.277-.774 1.673-1.849 1.681-2.135.132-4.5-1.782-2.719-3.11-3.047-5.859-1.446" fill="#dd7f2d" fill-rule="evenodd"/><path fill-opacity=".431" d="M96.396 10.358C87.489 13.277 79.715 20.738 75.93 30c-1.94 4.748-1.74 17.442.351 22.269l1.633 3.769-38.957 19.484L0 95.005v8.029c0 5.942.362 8.168 1.394 8.564.766.294 4.704-1.179 8.75-3.274 4.046-2.094 7.693-3.961 8.106-4.149.413-.188.75 27.821.75 62.242V229h133v3.345c0 4.172 2.587 6.655 6.935 6.655 2.296 0 3.86.741 5.225 2.476 4.3 5.467 14.4 5.441 18.718-.048l1.91-2.428h42.424l1.91 2.428c2.368 3.01 7.934 4.938 11.802 4.089 1.605-.353 4.191-1.839 5.747-3.302 1.556-1.464 4.179-3.348 5.829-4.188l3-1.527.278-13.689.278-13.689-7.387-13.811-7.386-13.811-10.142-.285L221 180.93v-10.408c0-13.464-.067-13.522-15.723-13.522H194v-52.022l8.126 4.085c4.941 2.484 8.486 3.725 9.045 3.166.505-.505.786-4.476.624-8.824L211.5 95.5l-37.863-19.163c-20.825-10.54-38.291-19.591-38.815-20.115-.602-.602-.329-2.855.744-6.135 4.725-14.445-2.354-30.922-16.194-37.694-6.522-3.19-16.699-4.092-22.976-2.035m.219 4.221c-6.988 2.232-14.928 10.368-17.032 17.455C76.177 43.501 77.506 47.476 92.945 72c6.752 10.725 12.396 19.632 12.541 19.792.507.559 23.508-36.525 25.628-41.316 4.065-9.191 1.38-21.758-6.284-29.405-6.873-6.858-18.61-9.559-28.215-6.492m.307 12.695c-7.827 5.274-10.125 14.034-5.733 21.849 5.34 9.501 17.697 11.191 25.411 3.477 10.356-10.356 3.368-27.6-11.184-27.6-3.67 0-6.076.644-8.494 2.274m1.841 3.291c-5.286 2.869-7.291 10.58-4.269 16.424C96.687 51.23 99.824 53 105.146 53c11.784 0 16.76-13.853 7.711-21.467-3.499-2.944-9.671-3.368-14.094-.968M53.77 86.282L22.039 102.5l-.019 57.75L22 218h15.984l.258-57.25.258-57.25 68.25-.257 68.25-.257V157h15.032l-.266-27.25-.266-27.25-31.951-16.25C139.976 77.313 125.317 70 124.974 70c-.343 0-4.574 6.3-9.403 14-4.829 7.7-9.296 14-9.927 14-.63 0-4.995-6.158-9.7-13.685-4.704-7.527-8.979-13.812-9.499-13.968-.52-.156-15.224 7.015-32.675 15.935M42 124.5V142h129v-35H42v17.5m12-9.5c0 1.975.667 2 53 2s53-.025 53-2-.667-2-53-2-53 .025-53 2m.667 7.667c-.367.366-.667 1.266-.667 2 0 1.094 9.5 1.333 53 1.333 52.333 0 53-.025 53-2s-.667-2-52.333-2c-28.784 0-52.634.3-53 .667m-.477 11.083c.315 1.636 3.762 1.767 53.074 2.009 52.233.256 52.736.24 52.736-1.75 0-1.987-.589-2.009-53.073-2.009-50.008 0-53.054.101-52.737 1.75M42 147.5c0 1.262 2.222 1.5 14 1.5s14-.238 14-1.5-2.222-1.5-14-1.5-14 .238-14 1.5m32 0c0 1.276 2.611 1.5 17.5 1.5s17.5-.224 17.5-1.5-2.611-1.5-17.5-1.5-17.5.224-17.5 1.5m39 34.5c0 31.333.194 36 1.5 36 1.295 0 1.5-3.599 1.5-26.393 0-21.719.248-26.488 1.402-26.931 2.616-1.004 26.03-.562 27.329.515.966.802 1.269 7.239 1.269 26.931V218h6v-28.943c0-34.03-.722-32.057 11.723-32.057H171v-11h-58v36m-71-14.059c0 8.882.406 15.192 1 15.559.646.4 1.005-3.91 1.015-12.191.009-7.045.381-13.385.827-14.088.611-.962 4.268-1.21 14.735-1l13.923.279.5 13.255c.296 7.837.909 13.256 1.5 13.256s1.204-5.419 1.5-13.256l.5-13.255h29l.279 13.25c.392 18.625 2.221 17.184 2.221-1.75v-15H42v14.941M48 161c0 .55 1.575 1 3.5 1s3.5-.45 3.5-1-1.575-1-3.5-1-3.5.45-3.5 1m16 0c0 .55 1.35 1 3 1s3-.45 3-1-1.35-1-3-1-3 .45-3 1m17 0c0 .55 1.35 1 3 1s3-.45 3-1-1.35-1-3-1-3 .45-3 1m16 0c0 .55 1.35 1 3 1s3-.45 3-1-1.35-1-3-1-3 .45-3 1m59 36.893c0 29.923.253 36.99 1.341 37.407 2.06.791 3.145-.42 4.482-4.996 2.151-7.368 9.455-10.886 16.493-7.945 4.015 1.677 7.675 6.748 7.68 10.641l.004 2.5 15.16-.2c11.172-.147 15.377-.542 15.985-1.5.94-1.483 1.175-68.802.248-71.218-.535-1.395-4.208-1.582-31-1.582H156v36.893M48 174v9h22v-18h-3c-2.533 0-3 .389-3 2.5 0 2.296-.367 2.5-4.5 2.5s-4.5-.204-4.5-2.5c0-2.19-.433-2.5-3.5-2.5H48v9m33 0v9h22v-18h-3.5c-3.067 0-3.5.31-3.5 2.5 0 2.296-.367 2.5-4.5 2.5s-4.5-.204-4.5-2.5c0-2.111-.467-2.5-3-2.5h-3v9m39-5c0 .55 1.35 1 3 1s3-.45 3-1-1.35-1-3-1-3 .45-3 1m15.5 0c-.369.596.843 1 3 1s3.369-.404 3-1c-.34-.55-1.69-1-3-1s-2.66.45-3 1M120 182v9h22v-18h-3.5c-3.222 0-3.5.238-3.5 3 0 2.889-.167 3-4.5 3s-4.5-.111-4.5-3c0-2.667-.333-3-3-3h-3v9m102 14.429v11.508l11.668.281c8.238.199 11.791.65 12.084 1.532.316.954-2.447 1.25-11.669 1.25H222v12c0 11.134.137 12 1.905 12 1.36 0 2.29-1.207 3.25-4.22 2.386-7.485 10.815-10.915 17.865-7.27 2.98 1.541 4.649 3.875 6.032 8.432.47 1.549.804-2.37.847-9.942l.071-12.5-6.344-12-6.344-12-8.641-.289-8.641-.289v11.507M42 202.5c0 9.667.376 15.5 1 15.5.613 0 1-4.793 1-12.378 0-9.34.341-12.66 1.388-13.529.935-.776 5.751-1.061 14.75-.873l13.362.28.279 13.25c.226 10.745.552 13.25 1.721 13.25s1.495-2.505 1.721-13.25l.279-13.25 13.362-.28c8.999-.188 13.815.097 14.75.873 1.047.869 1.388 4.189 1.388 13.529 0 7.585.387 12.378 1 12.378.624 0 1-5.833 1-15.5V187H42v15.5m6.5-6.5c-.368.595.823 1 2.941 1 1.957 0 3.559-.45 3.559-1s-1.323-1-2.941-1c-1.618 0-3.219.45-3.559 1m15.5 0c0 .55 1.35 1 3 1s3-.45 3-1-1.35-1-3-1-3 .45-3 1m17 0c0 .55 1.35 1 3 1s3-.45 3-1-1.35-1-3-1-3 .45-3 1m9 2.5c0 2.444.452 3.5 1.5 3.5s1.5-1.056 1.5-3.5-.452-3.5-1.5-3.5-1.5 1.056-1.5 3.5m6.5-2.5c-.368.595.823 1 2.941 1 1.957 0 3.559-.45 3.559-1s-1.323-1-2.941-1c-1.618 0-3.219.45-3.559 1m23.5 0c0 .55 1.35 1 3 1s3-.45 3-1-1.35-1-3-1-3 .45-3 1m15.5 0c-.368.595.823 1 2.941 1 1.957 0 3.559-.45 3.559-1s-1.323-1-2.941-1c-1.618 0-3.219.45-3.559 1M48 209v9h22v-18h-3c-2.533 0-3 .389-3 2.5 0 2.296-.367 2.5-4.5 2.5s-4.5-.204-4.5-2.5c0-2.19-.433-2.5-3.5-2.5H48v9m33 0v9h22v-18h-3.5c-3.067 0-3.5.31-3.5 2.5 0 2.296-.367 2.5-4.5 2.5s-4.5-.204-4.5-2.5c0-2.111-.467-2.5-3-2.5h-3v9m39 0v9h22v-18h-3.5c-3.067 0-3.5.31-3.5 2.5 0 2.296-.367 2.5-4.5 2.5s-4.5-.204-4.5-2.5c0-2.111-.467-2.5-3-2.5h-3v9m-97.306 13.639c-.352.352-.4 1.027-.108 1.5.293.474 29.53.861 64.973.861 56.614 0 64.441-.182 64.441-1.5s-7.815-1.5-64.333-1.5c-35.384 0-64.621.288-64.973.639m146.806 3.569c-6.805 3.903-5.53 13.491 2.047 15.393 3.04.763 8.182-1.227 9.491-3.672 4.027-7.524-4.231-15.912-11.538-11.721m63.384 1.685c-1.782 1.443-2.339 2.897-2.339 6.107 0 7.818 7.847 10.762 13.532 5.077 3.45-3.451 3.722-6.791.85-10.442-2.571-3.269-8.474-3.632-12.043-.742" fill="#dd7f2d" fill-rule="evenodd"/><path fill-opacity=".366" d="M98.081 10.559c-2.98.817-6.904 2.405-8.721 3.527-4.989 3.084-11.018 10.463-12.785 15.648-2.046 6.003-2.008 15.64.086 21.784.913 2.681 1.251 5.035.75 5.232-.501.196-18.011 8.996-38.911 19.554L.5 95.5l-.297 7.403c-.163 4.072.118 7.818.624 8.324.562.562 4.085-.669 9.025-3.153 4.457-2.241 8.339-4.074 8.626-4.074.287 0 .522 27.9.522 62v62h132.737l.565 4.215c.648 4.829 2.728 6.785 7.215 6.785 2.058 0 3.948.866 5.504 2.522 4.562 4.857 11.765 4.907 16.904.117 2.509-2.338 3.119-2.413 23.741-2.909l21.165-.509 2.144 2.465c5.162 5.937 12.48 6.112 18.46.441 1.686-1.598 4.062-3.206 5.28-3.573 2.926-.88 3.559-4.589 3.107-18.197l-.36-10.857-7.249-13.5-7.248-13.5H221.5l-.284-10.125c-.382-13.662-.548-13.807-16.069-14.078l-11.647-.204-.266-26.566-.267-26.566 7.994 4.02c4.397 2.21 8.68 4.019 9.517 4.019 1.236 0 1.522-1.503 1.522-7.996v-7.996l-23.25-11.615c-12.787-6.389-30.512-15.401-39.388-20.028l-16.138-8.412 1.972-6.227c7.23-22.839-14.199-45.454-37.115-39.167M94.5 14.867c-9.653 4.401-15.433 12.432-16.248 22.577-.281 3.501-.222 7.902.13 9.78.46 2.451 24.453 42.815 27.082 45.561.15.157 6.158-9.08 13.35-20.527 9.071-14.436 13.421-22.336 14.2-25.785 2.822-12.502-4.058-25.989-16.014-31.394-5.921-2.678-16.865-2.78-22.5-.212m3.771 12.042c-7.661 3.577-10.943 12.522-7.474 20.366 2.807 6.345 7.296 9.225 14.38 9.225 6.133 0 9.379-1.685 13.261-6.885 2.891-3.872 2.891-13.358 0-17.23-5.189-6.95-12.664-8.98-20.167-5.476m2.73 2.214c-6.373 2.542-9.986 9.363-8.055 15.212 2.494 7.558 10.248 11.282 17.33 8.323 9.906-4.139 10.179-18.367.441-22.988-3.954-1.877-6.081-1.996-9.716-.547m28.062 33.494c-1.179 1.999-2.013 3.732-1.854 3.851 1.078.799 79.761 40.532 80.266 40.532.349 0 .497-2.054.33-4.564l-.305-4.565-38.146-19.444-38.146-19.444-2.145 3.634M41.25 78.8L4 97.488v9.517L44 87c22-11.003 40-20.251 40-20.552 0-1.616-3.227-6.44-4.276-6.392-.673.031-17.986 8.466-38.474 18.744m74.804 3.753c-4.646 7.44-9.001 13.988-9.679 14.551-1.288 1.069-1.436.867-13.42-18.352-3-4.812-5.795-8.749-6.211-8.75-.416-.001-15.153 7.199-32.75 16.001L22 102.006V219h16V104h137v53h15v-54.851l-32.25-16.324A25998.596 25998.596 0 00125 69.262c-.275-.131-4.301 5.85-8.946 13.291m-74.387 25.114c-.367.366-.667 8.241-.667 17.5V142h131v-35h-64.833c-35.659 0-65.134.3-65.5.667M55 115.509c0 1.329 6.212 1.478 52.167 1.25 40.659-.202 52.258-.535 52.583-1.509.33-.989-10.545-1.25-52.167-1.25-46.212 0-52.583.183-52.583 1.509m0 8.991c0 1.314 6.5 1.5 52.5 1.5s52.5-.186 52.5-1.5-6.5-1.5-52.5-1.5-52.5.186-52.5 1.5m0 9c0 1.314 6.5 1.5 52.5 1.5s52.5-.186 52.5-1.5-6.5-1.5-52.5-1.5-52.5.186-52.5 1.5m-13.654 13.04c-1.158 3.019 1.203 3.521 15.233 3.239 13.161-.264 13.921-.388 13.921-2.279 0-1.894-.759-2.015-14.271-2.278-12.306-.239-14.355-.058-14.883 1.318M74 147.5v2.546l17.75-.273c16.992-.261 17.75-.358 17.75-2.273s-.758-2.012-17.75-2.273L74 144.954v2.546m39 34.485c0 32.054.199 37.015 1.484 37.015 1.268 0 1.522-3.889 1.75-26.75l.266-26.75 14.234-.277 14.233-.278.267 26.778.266 26.777 3.25.313 3.25.314v-57.218l2.455-2.454c2.175-2.176 3.319-2.455 10.049-2.455h7.596l-.3-5.75-.3-5.75-29.25-.265-29.25-.265v37.015m-71.561-27.687c-.274.714-.372 7.571-.219 15.238.248 12.35.479 13.977 2.03 14.275 1.597.306 1.75-.849 1.75-13.238V157h29v13.5c0 11.333.241 13.5 1.5 13.5s1.5-2.167 1.5-13.5V157h29v13.5c0 12.833.099 13.5 2 13.5 1.914 0 2-.667 2-15.5V153H75.969c-26.976 0-34.135.269-34.53 1.298M58 163c0 2.889.417 4 1.5 4s1.5-1.111 1.5-4c0-2.889-.417-4-1.5-4s-1.5 1.111-1.5 4m32-.073c0 3.446.317 4.073 2.06 4.073 1.769 0 2.017-.53 1.75-3.742-.217-2.615-.837-3.841-2.06-4.073-1.435-.272-1.75.403-1.75 3.742M48 161c0 .55 1.575 1 3.5 1s3.5-.45 3.5-1-1.575-1-3.5-1-3.5.45-3.5 1m16 0c0 .55 1.575 1 3.5 1s3.5-.45 3.5-1-1.575-1-3.5-1-3.5.45-3.5 1m16 0c0 .55 1.548 1 3.441 1 1.893 0 3.719-.45 4.059-1 .373-.604-.99-1-3.441-1-2.232 0-4.059.45-4.059 1m16 0c0 .55 1.575 1 3.5 1s3.5-.45 3.5-1-1.575-1-3.5-1-3.5.45-3.5 1m60.2.2c-.888.888-1.2 10.462-1.2 36.878 0 29.968.232 35.87 1.452 36.882 2.652 2.201 4.972.802 5.657-3.414.933-5.742 5.519-9.546 11.507-9.546 3.88 0 5.106.522 7.984 3.4 1.87 1.87 3.456 4.345 3.525 5.5.069 1.155.181 2.663.25 3.35.172 1.718 29.224 2.327 31.24.655 1.89-1.569 2.067-71.823.185-73.705-1.713-1.713-58.887-1.713-60.6 0M48.214 173.75l.286 9.75h22l.286-9.75.286-9.75h-3.536c-3.262 0-3.536.232-3.536 3 0 2.889-.167 3-4.5 3s-4.5-.111-4.5-3c0-2.768-.274-3-3.536-3h-3.536l.286 9.75m32.236-8.48c-.295.768-.404 5.185-.243 9.814l.293 8.416h22l.286-9.75.286-9.75h-3.536c-3.262 0-3.536.232-3.536 3 0 2.867-.19 3-4.289 3-4.023 0-4.287-.171-4.25-2.75.034-2.383-.396-2.792-3.218-3.064-2.099-.202-3.447.183-3.793 1.084m38.794 3.98c.64 1.951 6.756 2.235 6.756.313 0-1.127-1-1.563-3.583-1.563-2.419 0-3.45.406-3.173 1.25M129 172c0 2.889.417 4 1.5 4s1.5-1.111 1.5-4c0-2.889-.417-4-1.5-4s-1.5 1.111-1.5 4m6.25-2.75c.229.688 1.692 1.25 3.25 1.25s3.021-.562 3.25-1.25c.283-.848-.761-1.25-3.25-1.25s-3.533.402-3.25 1.25M119 182.5v9.5h23v-19h-3.5c-3.067 0-3.5.31-3.5 2.5 0 2.296-.367 2.5-4.5 2.5s-4.5-.204-4.5-2.5c0-2.19-.433-2.5-3.5-2.5H119v9.5m102.433 2.814c-.277.723-.376 6.236-.219 12.25l.286 10.936 11.75.282c15.677.376 15.469 2.218-.25 2.218h-12v24h3c2.522 0 3-.393 3-2.465 0-3.457 5.457-9.342 9.337-10.07 6.193-1.162 13.158 3.326 14.257 9.186 1.241 6.611 2.406 1.993 2.387-9.46l-.019-11.691-7.029-13.25-7.03-13.25h-8.483c-6.085 0-8.625.371-8.987 1.314M41.44 188.296c-.274.713-.372 7.795-.219 15.737.248 12.83.474 14.48 2.029 14.778 1.597.306 1.75-.849 1.75-13.238V192h29v13.5c0 11.215.249 13.5 1.471 13.5 1.207 0 1.521-2.382 1.75-13.25l.279-13.25 14.221-.277 14.221-.278.279 13.278c.231 11.011.535 13.277 1.779 13.277 1.258 0 1.544-2.539 1.775-15.75l.276-15.75H75.994c-26.967 0-34.16.27-34.554 1.296M58 198.5c0 3.333.389 4.5 1.5 4.5s1.5-1.167 1.5-4.5-.389-4.5-1.5-4.5-1.5 1.167-1.5 4.5m32 0c0 3.833.296 4.5 2 4.5s2-.667 2-4.5-.296-4.5-2-4.5-2 .667-2 4.5M48 196c0 .55 1.575 1 3.5 1s3.5-.45 3.5-1-1.575-1-3.5-1-3.5.45-3.5 1m16 0c0 .55 1.575 1 3.5 1s3.5-.45 3.5-1-1.575-1-3.5-1-3.5.45-3.5 1m16 0c0 .55 1.827 1 4.059 1 2.451 0 3.814-.396 3.441-1-.34-.55-2.166-1-4.059-1-1.893 0-3.441.45-3.441 1m16 0c0 .55 1.575 1 3.5 1s3.5-.45 3.5-1-1.575-1-3.5-1-3.5.45-3.5 1m23 0c0 .55 1.575 1 3.5 1s3.5-.45 3.5-1-1.575-1-3.5-1-3.5.45-3.5 1m10 3c0 2.889.417 4 1.5 4s1.5-1.111 1.5-4c0-2.889-.417-4-1.5-4s-1.5 1.111-1.5 4m6-3c0 .55 1.575 1 3.5 1s3.5-.45 3.5-1-1.575-1-3.5-1-3.5.45-3.5 1m-86.287 3.621c-.392.392-.713 4.912-.713 10.046V219h23.072l-.286-9.75-.286-9.75-3.25-.313c-3.028-.292-3.25-.104-3.25 2.75 0 2.957-.154 3.063-4.434 3.063-4.093 0-4.457-.211-4.75-2.75-.241-2.096-.92-2.82-2.853-3.046-1.396-.163-2.859.025-3.25.417m31.737.649c-.295.768-.404 5.185-.243 9.814l.293 8.416 11.25.283 11.25.283V198.873l-3.25.314c-2.708.261-3.303.772-3.566 3.063-.29 2.516-.676 2.75-4.54 2.75-3.95 0-4.22-.178-4.183-2.75.034-2.383-.396-2.792-3.218-3.064-2.099-.202-3.447.183-3.793 1.084m38.975.064c-.281.733-.379 5.121-.218 9.75l.293 8.416 11.287.283 11.286.283-.286-9.783-.287-9.783h-3c-2.529 0-3.05.431-3.316 2.75-.293 2.539-.657 2.75-4.75 2.75-4.26 0-4.434-.118-4.434-3 0-2.674-.33-3-3.031-3-1.668 0-3.262.6-3.544 1.334M22 223.5c0 1.318 7.889 1.5 65 1.5s65-.182 65-1.5-7.889-1.5-65-1.5-65 .182-65 1.5m145.356 3.87c-6.11 5.256-1.929 14.63 6.525 14.63 4.91 0 8.519-3.602 8.519-8.5 0-7.667-8.996-11.332-15.044-6.13m65.69.43c-5.919 5.919-2.82 14.2 5.314 14.2 10.642 0 11.934-14.973 1.436-16.654-3.202-.512-4.116-.18-6.75 2.454" fill="#dd7f2d" fill-rule="evenodd"/></svg>